<?xml version="1.0" encoding="UTF-8" standalone="no"?>
<svg xmlns:xlink="http://www.w3.org/1999/xlink" height="16.4px" width="95.9px" xmlns="http://www.w3.org/2000/svg">
  <g transform="matrix(1.0, 0.0, 0.0, 1.0, 47.95, 15.9)">
    <path d="M47.45 -2.0 Q47.45 -1.2 46.85 -0.6 46.25 0.0 45.45 0.0 L-45.45 0.0 Q-46.25 0.0 -46.85 -0.6 -47.45 -1.2 -47.45 -2.0 L-47.45 -13.4 Q-47.45 -14.2 -46.85 -14.8 -46.25 -15.4 -45.45 -15.4 L45.45 -15.4 Q46.25 -15.4 46.85 -14.8 47.45 -14.2 47.45 -13.4 L47.45 -2.0" fill="#dcc6ad" fill-rule="evenodd" stroke="none"/>
    <path d="M47.45 -2.0 L47.45 -13.4 Q47.45 -14.2 46.85 -14.8 46.25 -15.4 45.45 -15.4 L-45.45 -15.4 Q-46.25 -15.4 -46.85 -14.8 -47.45 -14.2 -47.45 -13.4 L-47.45 -2.0 Q-47.45 -1.2 -46.85 -0.6 -46.25 0.0 -45.45 0.0 L45.45 0.0 Q46.25 0.0 46.85 -0.6 47.45 -1.2 47.45 -2.0 Z" fill="none" stroke="#483a24" stroke-linecap="round" stroke-linejoin="round" stroke-width="1.0"/>
  </g>
</svg>
