<?xml version="1.0" encoding="UTF-8" standalone="no"?>
<svg xmlns:xlink="http://www.w3.org/1999/xlink" height="184.3px" width="267.1px" xmlns="http://www.w3.org/2000/svg">
  <g transform="matrix(1.0, 0.0, 0.0, 1.0, 80.35, 139.1)">
    <path d="M184.8 -137.3 Q185.75 -136.5 185.75 -135.45 L185.75 41.55 Q185.75 42.6 184.8 43.4 183.75 44.2 182.45 44.2 L-76.0 44.2 Q-77.35 44.2 -78.3 43.4 -79.35 42.6 -79.35 41.55 L-79.35 -135.45 Q-79.35 -136.5 -78.3 -137.3 -77.35 -138.1 -76.0 -138.1 L182.45 -138.1 Q183.75 -138.1 184.8 -137.3" fill="#dcc6ad" fill-rule="evenodd" stroke="none"/>
    <path d="M184.8 -137.3 Q183.75 -138.1 182.45 -138.1 L-76.0 -138.1 Q-77.35 -138.1 -78.3 -137.3 -79.35 -136.5 -79.35 -135.45 L-79.35 41.55 Q-79.35 42.6 -78.3 43.4 -77.35 44.2 -76.0 44.2 L182.45 44.2 Q183.75 44.2 184.8 43.4 185.75 42.6 185.75 41.55 L185.75 -135.45 Q185.75 -136.5 184.8 -137.3 Z" fill="none" stroke="#483a24" stroke-linecap="round" stroke-linejoin="round" stroke-width="2.0"/>
  </g>
</svg>
