<?xml version="1.0" encoding="UTF-8" standalone="no"?>
<svg xmlns:xlink="http://www.w3.org/1999/xlink" height="24.1px" width="85.05px" xmlns="http://www.w3.org/2000/svg">
  <g transform="matrix(1.0, 0.0, 0.0, 1.0, 0.85, 1.15)">
    <path d="M4.15 -1.15 L79.2 -1.15 Q84.2 -1.15 84.2 3.85 L84.2 17.95 Q84.2 22.95 79.2 22.95 L4.15 22.95 Q-0.85 22.95 -0.85 17.95 L-0.85 3.85 Q-0.85 -1.15 4.15 -1.15 M82.2 17.95 L82.2 3.85 Q82.2 0.85 79.2 0.85 L4.15 0.85 Q1.15 0.85 1.15 3.85 L1.15 17.95 Q1.15 20.95 4.15 20.95 L79.2 20.95 Q82.2 20.95 82.2 17.95" fill="#483a24" fill-rule="evenodd" stroke="none"/>
    <path d="M82.2 17.95 Q82.2 20.95 79.2 20.95 L4.15 20.95 Q1.15 20.95 1.15 17.95 L1.15 3.85 Q1.15 0.85 4.15 0.85 L79.2 0.85 Q82.2 0.85 82.2 3.85 L82.2 17.95" fill="#dcc6ad" fill-rule="evenodd" stroke="none"/>
  </g>
</svg>
