<?xml version="1.0" encoding="UTF-8" standalone="no"?>
<svg xmlns:xlink="http://www.w3.org/1999/xlink" height="487.9px" width="726.45px" xmlns="http://www.w3.org/2000/svg">
  <g transform="matrix(1.0, 0.0, 0.0, 1.0, 363.2, 353.3)">
    <path d="M242.25 123.95 L71.0 123.95 68.45 123.4 66.75 122.2 Q65.0 120.45 65.0 117.95 L65.0 -159.75 Q65.0 -162.25 66.75 -164.0 L67.4 -164.55 Q68.95 -165.75 71.0 -165.75 L232.9 -165.75 272.85 -165.75 274.25 -165.75 277.5 -165.75 274.25 -165.75 272.85 -165.75 272.85 -165.8 274.25 -165.8 275.7 -165.75 276.65 -165.75 277.5 -165.75 299.45 -165.75 322.15 -165.75 324.45 -165.75 322.15 -165.75 322.15 -165.8 324.45 -165.75 326.8 -165.8 345.05 -165.8 Q347.55 -165.8 349.3 -164.05 351.05 -162.3 351.05 -159.8 L351.05 117.9 Q351.05 120.4 349.3 122.15 347.55 123.9 345.05 123.9 L329.55 123.95 326.8 123.9 326.8 123.95 298.65 123.95 298.65 123.9 280.4 123.9 280.4 123.95 242.25 123.95 M54.1 -164.1 Q55.85 -162.35 55.85 -159.85 L55.85 117.85 Q55.85 120.35 54.1 122.1 52.35 123.85 49.85 123.85 L-137.8 123.85 Q-140.3 123.85 -142.05 122.1 -143.8 120.35 -143.8 117.85 L-143.8 -159.85 Q-143.8 -162.35 -142.05 -164.1 L-141.45 -164.6 Q-139.9 -165.85 -137.8 -165.85 L49.85 -165.85 Q52.35 -165.85 54.1 -164.1 M274.25 -165.75 L275.7 -165.75 274.25 -165.75 M-352.65 -159.65 Q-352.65 -162.15 -350.9 -163.9 -349.15 -165.65 -346.65 -165.65 L-159.0 -165.65 Q-156.5 -165.65 -154.75 -163.9 -153.0 -162.15 -153.0 -159.65 L-153.0 118.05 Q-153.0 120.55 -154.75 122.3 -156.5 124.05 -159.0 124.05 L-346.65 124.05 Q-349.15 124.05 -350.9 122.3 -352.65 120.55 -352.65 118.05 L-352.65 -159.65" fill="#dcc6ad" fill-rule="evenodd" stroke="none"/>
    <path d="M207.0 -351.3 L281.9 -351.3 355.25 -351.3 Q357.75 -351.3 359.5 -349.55 361.25 -347.8 361.25 -345.3 L361.25 -323.35 361.25 -222.2 361.25 -117.3 361.25 -51.95 361.25 126.6 361.15 127.75 Q360.85 129.5 359.5 130.85 L358.8 131.45 Q357.3 132.6 355.25 132.6 L-355.2 132.6 Q-357.25 132.6 -358.75 131.45 L-359.45 130.85 Q-360.7 129.6 -361.05 127.95 L-361.2 126.6 -361.2 -152.55 -361.2 -323.35 -361.2 -345.3 Q-361.2 -347.8 -359.45 -349.55 -357.7 -351.3 -355.2 -351.3 L207.0 -351.3 M232.9 -165.75 L71.0 -165.75 Q68.95 -165.75 67.4 -164.55 L66.75 -164.0 Q65.0 -162.25 65.0 -159.75 L65.0 117.95 Q65.0 120.45 66.75 122.2 L68.45 123.4 71.0 123.95 242.25 123.95 280.4 123.95 280.4 123.9 298.65 123.9 298.65 123.95 326.8 123.95 326.8 123.9 329.55 123.95 345.05 123.9 Q347.55 123.9 349.3 122.15 351.05 120.4 351.05 117.9 L351.05 -159.8 Q351.05 -162.3 349.3 -164.05 347.55 -165.8 345.05 -165.8 L326.8 -165.8 324.45 -165.75 322.15 -165.8 322.15 -165.75 299.45 -165.75 298.65 -165.8 274.25 -165.8 272.85 -165.8 272.85 -165.75 232.9 -165.75 M54.1 -164.1 Q52.35 -165.85 49.85 -165.85 L-137.8 -165.85 Q-139.9 -165.85 -141.45 -164.6 L-142.05 -164.1 Q-143.8 -162.35 -143.8 -159.85 L-143.8 117.85 Q-143.8 120.35 -142.05 122.1 -140.3 123.85 -137.8 123.85 L49.85 123.85 Q52.35 123.85 54.1 122.1 55.85 120.35 55.85 117.85 L55.85 -159.85 Q55.85 -162.35 54.1 -164.1 M298.65 123.95 L284.7 123.95 298.65 123.95 M329.55 123.95 L326.8 123.95 329.55 123.95 M284.7 123.95 L280.4 123.95 284.7 123.95 M-352.65 -159.65 L-352.65 118.05 Q-352.65 120.55 -350.9 122.3 -349.15 124.05 -346.65 124.05 L-159.0 124.05 Q-156.5 124.05 -154.75 122.3 -153.0 120.55 -153.0 118.05 L-153.0 -159.65 Q-153.0 -162.15 -154.75 -163.9 -156.5 -165.65 -159.0 -165.65 L-346.65 -165.65 Q-349.15 -165.65 -350.9 -163.9 -352.65 -162.15 -352.65 -159.65" fill="#d1b494" fill-rule="evenodd" stroke="none"/>
    <path d="M232.9 -165.75 L71.0 -165.75 Q68.95 -165.75 67.4 -164.55 L66.75 -164.0 Q65.0 -162.25 65.0 -159.75 L65.0 117.95 Q65.0 120.45 66.75 122.2 L68.45 123.4 71.0 123.95 242.25 123.95 M298.65 123.95 L326.8 123.95 329.55 123.95 345.05 123.9 Q347.55 123.9 349.3 122.15 351.05 120.4 351.05 117.9 L351.05 -159.8 Q351.05 -162.3 349.3 -164.05 347.55 -165.8 345.05 -165.8 L326.8 -165.8 M326.8 123.9 L329.55 123.95 M54.1 -164.1 Q52.35 -165.85 49.85 -165.85 L-137.8 -165.85 Q-139.9 -165.85 -141.45 -164.6 L-142.05 -164.1 Q-143.8 -162.35 -143.8 -159.85 L-143.8 117.85 Q-143.8 120.35 -142.05 122.1 -140.3 123.85 -137.8 123.85 L49.85 123.85 Q52.35 123.85 54.1 122.1 55.85 120.35 55.85 117.85 L55.85 -159.85 Q55.85 -162.35 54.1 -164.1 M274.25 -165.8 L275.7 -165.75 276.65 -165.75 M274.25 -165.8 L272.85 -165.8 M284.7 123.95 L298.65 123.95 M-352.65 -159.65 L-352.65 118.05 Q-352.65 120.55 -350.9 122.3 -349.15 124.05 -346.65 124.05 L-159.0 124.05 Q-156.5 124.05 -154.75 122.3 -153.0 120.55 -153.0 118.05 L-153.0 -159.65 Q-153.0 -162.15 -154.75 -163.9 -156.5 -165.65 -159.0 -165.65 L-346.65 -165.65 Q-349.15 -165.65 -350.9 -163.9 -352.65 -162.15 -352.65 -159.65" fill="none" stroke="#483a24" stroke-linecap="round" stroke-linejoin="round" stroke-width="2.0"/>
    <path d="M207.0 -351.3 L-355.2 -351.3 Q-357.7 -351.3 -359.45 -349.55 -361.2 -347.8 -361.2 -345.3 L-361.2 -323.35 M-361.2 -152.55 L-361.2 126.6 -361.05 127.95 Q-360.7 129.6 -359.45 130.85 L-358.75 131.45 Q-357.25 132.6 -355.2 132.6 L355.25 132.6 Q357.3 132.6 358.8 131.45 L359.5 130.85 Q360.85 129.5 361.15 127.75 M361.25 126.6 L361.25 -51.95 M361.25 -117.3 L361.25 -222.2 M361.25 -323.35 L361.25 -345.3 Q361.25 -347.8 359.5 -349.55 357.75 -351.3 355.25 -351.3 L281.9 -351.3" fill="none" stroke="#483a24" stroke-linecap="round" stroke-linejoin="round" stroke-width="4.0"/>
    <path d="M242.25 123.95 L280.4 123.95 284.7 123.95 M326.8 -165.8 L324.45 -165.75 322.15 -165.75 299.45 -165.75 277.5 -165.75 274.25 -165.75 272.85 -165.75 232.9 -165.75 M276.65 -165.75 L277.5 -165.75 M275.7 -165.75 L274.25 -165.75 M324.45 -165.75 L322.15 -165.8" fill="none" stroke="#483a24" stroke-linecap="round" stroke-linejoin="round" stroke-width="2.0"/>
    <path d="M281.9 -351.3 L207.0 -351.3 M-361.2 -323.35 L-361.2 -152.55 M361.25 -51.95 L361.25 -117.3 M361.25 -222.2 L361.25 -323.35" fill="none" stroke="#483a24" stroke-linecap="round" stroke-linejoin="round" stroke-width="4.0"/>
    <path d="M71.05 -310.75 L345.95 -310.75 348.8 -310.75 Q351.8 -310.75 351.8 -307.75 L351.8 -176.85 Q351.8 -173.9 348.8 -173.85 L68.1 -173.85 Q65.2 -173.95 65.25 -176.85 L65.25 -307.75 Q65.2 -310.7 68.1 -310.75 L68.25 -310.75 71.05 -310.75 M46.35 -310.8 L52.95 -310.8 53.65 -310.75 Q55.95 -310.45 55.95 -307.8 L55.95 -176.9 Q55.95 -173.95 52.95 -173.9 L-349.55 -173.85 Q-352.6 -173.9 -352.55 -176.85 L-352.55 -307.75 Q-352.6 -310.75 -349.55 -310.75 L46.35 -310.75 46.35 -310.8" fill="#dcc6ad" fill-rule="evenodd" stroke="none"/>
    <path d="M68.1 -310.75 Q65.2 -310.7 65.25 -307.75 L65.25 -176.85 Q65.2 -173.95 68.1 -173.85 L348.8 -173.85 Q351.8 -173.9 351.8 -176.85 L351.8 -307.75 Q351.8 -310.75 348.8 -310.75 L345.95 -310.75 71.05 -310.75 M46.35 -310.75 L-349.55 -310.75 Q-352.6 -310.75 -352.55 -307.75 L-352.55 -176.85 Q-352.6 -173.9 -349.55 -173.85 L52.95 -173.9 Q55.95 -173.95 55.95 -176.9 L55.95 -307.8 Q55.95 -310.45 53.65 -310.75 L52.95 -310.8 46.35 -310.8" fill="none" stroke="#483a24" stroke-linecap="round" stroke-linejoin="round" stroke-width="2.0"/>
    <path d="M71.05 -310.75 L68.25 -310.75" fill="none" stroke="#483a24" stroke-linecap="round" stroke-linejoin="round" stroke-width="2.0"/>
  </g>
</svg>
