<?xml version="1.0" encoding="UTF-8" standalone="no"?>
<svg xmlns:xlink="http://www.w3.org/1999/xlink" height="26.0px" width="61.0px" xmlns="http://www.w3.org/2000/svg">
  <g transform="matrix(1.0, 0.0, 0.0, 1.0, 1.0, 1.0)">
    <path d="M50.35 20.45 Q41.7 24.0 29.5 24.0 17.3 24.0 8.65 20.45 0.0 16.95 0.0 12.0 0.0 7.05 8.65 3.5 17.3 0.0 29.5 0.0 41.7 0.0 50.35 3.5 59.0 7.05 59.0 12.0 59.0 16.95 50.35 20.45" fill="#dcc6ad" fill-rule="evenodd" stroke="none"/>
    <path d="M50.35 20.45 Q41.7 24.0 29.5 24.0 17.3 24.0 8.65 20.45 0.0 16.95 0.0 12.0 0.0 7.05 8.65 3.5 17.3 0.0 29.5 0.0 41.7 0.0 50.35 3.5 59.0 7.05 59.0 12.0 59.0 16.95 50.35 20.45 Z" fill="none" stroke="#483a24" stroke-linecap="round" stroke-linejoin="round" stroke-width="2.0"/>
    <path d="M26.1 4.05 Q32.55 7.75 39.0 11.5 L26.1 18.95 26.1 4.05" fill="#483a24" fill-rule="evenodd" stroke="none"/>
  </g>
</svg>
