<?xml version="1.0" encoding="UTF-8" standalone="no"?>
<svg xmlns:xlink="http://www.w3.org/1999/xlink" height="24.0px" width="24.0px" xmlns="http://www.w3.org/2000/svg">
  <g transform="matrix(1.0, 0.0, 0.0, 1.0, 12.0, 12.0)">
    <path d="M8.5 -8.5 Q12.0 -5.0 12.0 0.0 12.0 5.0 8.5 8.5 5.0 12.0 0.0 12.0 -5.0 12.0 -8.5 8.5 -12.0 5.0 -12.0 0.0 -12.0 -5.0 -8.5 -8.5 -5.0 -12.0 0.0 -12.0 5.0 -12.0 8.5 -8.5 M7.1 -7.05 Q4.15 -10.0 0.0 -10.0 -4.15 -10.0 -7.05 -7.05 -10.0 -4.15 -10.0 0.0 -10.0 4.15 -7.05 7.1 -4.15 10.0 0.0 10.0 4.15 10.0 7.1 7.1 10.0 4.15 10.0 0.0 10.0 -4.15 7.1 -7.05" fill="#ff9900" fill-rule="evenodd" stroke="none"/>
    <path d="M7.1 -7.05 Q10.0 -4.15 10.0 0.0 10.0 4.15 7.1 7.1 4.15 10.0 0.0 10.0 -4.15 10.0 -7.05 7.1 -10.0 4.15 -10.0 0.0 -10.0 -4.15 -7.05 -7.05 -4.15 -10.0 0.0 -10.0 4.15 -10.0 7.1 -7.05" fill="#000000" fill-rule="evenodd" stroke="none"/>
  </g>
</svg>
