<?xml version="1.0" encoding="UTF-8" standalone="no"?>
<svg xmlns:xlink="http://www.w3.org/1999/xlink" height="184.35px" width="197.05px" xmlns="http://www.w3.org/2000/svg">
  <g transform="matrix(1.0, 0.0, 0.0, 1.0, 80.05, 139.05)">
    <path d="M115.3 -137.25 Q116.0 -136.5 116.0 -135.4 L116.0 41.65 Q116.0 42.7 115.3 43.5 114.55 44.3 113.55 44.3 L-76.55 44.3 Q-77.55 44.3 -78.3 43.5 -79.05 42.7 -79.05 41.65 L-79.05 -135.4 Q-79.05 -136.5 -78.3 -137.25 -77.55 -138.05 -76.55 -138.05 L113.55 -138.05 Q114.55 -138.05 115.3 -137.25" fill="#dcc6ad" fill-rule="evenodd" stroke="none"/>
    <path d="M115.3 -137.25 Q114.55 -138.05 113.55 -138.05 L-76.55 -138.05 Q-77.55 -138.05 -78.3 -137.25 -79.05 -136.5 -79.05 -135.4 L-79.05 41.65 Q-79.05 42.7 -78.3 43.5 -77.55 44.3 -76.55 44.3 L113.55 44.3 Q114.55 44.3 115.3 43.5 116.0 42.7 116.0 41.65 L116.0 -135.4 Q116.0 -136.5 115.3 -137.25 Z" fill="none" stroke="#483a24" stroke-linecap="round" stroke-linejoin="round" stroke-width="2.0"/>
  </g>
</svg>
