<?xml version="1.0" encoding="UTF-8" standalone="no"?>
<svg xmlns:xlink="http://www.w3.org/1999/xlink" height="15.5px" width="15.5px" xmlns="http://www.w3.org/2000/svg">
  <g transform="matrix(1.0, 0.0, 0.0, 1.0, 7.75, 14.5)">
    <path d="M-6.75 -11.5 Q-6.75 -12.3 -6.15 -12.9 -5.55 -13.5 -4.75 -13.5 L4.75 -13.5 Q5.55 -13.5 6.15 -12.9 6.75 -12.3 6.75 -11.5 L6.75 -2.0 Q6.75 -1.2 6.15 -0.6 5.55 0.0 4.75 0.0 L-4.75 0.0 Q-5.55 0.0 -6.15 -0.6 -6.75 -1.2 -6.75 -2.0 L-6.75 -11.5 M-5.15 -1.55 L-0.05 -6.65 4.9 -1.7 -0.05 -6.65 -5.15 -1.55 M5.2 -11.95 L-0.05 -6.65 -5.15 -11.75 -0.05 -6.65 5.2 -11.95" fill="#dcc6ad" fill-rule="evenodd" stroke="none"/>
    <path d="M-6.75 -11.5 L-6.75 -2.0 Q-6.75 -1.2 -6.15 -0.6 -5.55 0.0 -4.75 0.0 L4.75 0.0 Q5.55 0.0 6.15 -0.6 6.75 -1.2 6.75 -2.0 L6.75 -11.5 Q6.75 -12.3 6.15 -12.9 5.55 -13.5 4.75 -13.5 L-4.75 -13.5 Q-5.55 -13.5 -6.15 -12.9 -6.75 -12.3 -6.75 -11.5 M-5.15 -11.75 L-0.05 -6.65 5.2 -11.95 M4.9 -1.7 L-0.05 -6.65 -5.15 -1.55" fill="none" stroke="#483a24" stroke-linecap="round" stroke-linejoin="round" stroke-width="2.0"/>
  </g>
</svg>
