<?xml version="1.0" encoding="UTF-8" standalone="no"?>
<svg xmlns:xlink="http://www.w3.org/1999/xlink" height="12.5px" width="12.5px" xmlns="http://www.w3.org/2000/svg">
  <g transform="matrix(1.0, 0.0, 0.0, 1.0, 6.25, 11.5)">
    <path d="M5.25 -10.5 L5.25 0.0 -5.25 0.0 -5.25 -10.5 5.25 -10.5 M3.75 -9.1 L-0.1 -5.3 -4.0 -9.1 -0.1 -5.3 3.75 -9.1 M-3.8 -1.65 L-0.1 -5.3 3.6 -1.65 -0.1 -5.3 -3.8 -1.65" fill="#dcc6ad" fill-rule="evenodd" stroke="none"/>
    <path d="M5.25 -10.5 L5.25 0.0 -5.25 0.0 -5.25 -10.5 5.25 -10.5 M3.6 -1.65 L-0.1 -5.3 -3.8 -1.65 M-4.0 -9.1 L-0.1 -5.3 3.75 -9.1" fill="none" stroke="#483a24" stroke-linecap="round" stroke-linejoin="round" stroke-width="2.0"/>
  </g>
</svg>
