<?xml version="1.0" encoding="UTF-8" standalone="no"?>
<svg xmlns:xlink="http://www.w3.org/1999/xlink" height="15.2px" width="16.2px" xmlns="http://www.w3.org/2000/svg">
  <g transform="matrix(1.0, 0.0, 0.0, 1.0, 8.1, 14.7)">
    <path d="M0.0 -14.2 Q3.15 -14.2 5.35 -12.15 7.6 -10.05 7.6 -7.1 7.6 -4.15 5.35 -2.1 3.15 0.0 0.0 0.0 -3.15 0.0 -5.4 -2.1 -7.6 -4.15 -7.6 -7.1 -7.6 -10.05 -5.4 -12.15 -3.15 -14.2 0.0 -14.2 M-2.2 -9.15 L-4.5 -9.15 -4.5 -5.45 -2.2 -5.45 -2.2 -3.1 1.95 -3.1 1.95 -5.45 4.4 -5.45 4.4 -9.15 1.95 -9.15 1.95 -11.3 -2.2 -11.3 -2.2 -9.15" fill="#ffffff" fill-rule="evenodd" stroke="none"/>
    <path d="M-2.2 -9.15 L-2.2 -11.3 1.95 -11.3 1.95 -9.15 4.4 -9.15 4.4 -5.45 1.95 -5.45 1.95 -3.1 -2.2 -3.1 -2.2 -5.45 -4.5 -5.45 -4.5 -9.15 -2.2 -9.15" fill="#ff0000" fill-rule="evenodd" stroke="none"/>
    <path d="M0.0 -14.2 Q3.15 -14.2 5.35 -12.15 7.6 -10.05 7.6 -7.1 7.6 -4.15 5.35 -2.1 3.15 0.0 0.0 0.0 -3.15 0.0 -5.4 -2.1 -7.6 -4.15 -7.6 -7.1 -7.6 -10.05 -5.4 -12.15 -3.15 -14.2 0.0 -14.2 Z" fill="none" stroke="#483a24" stroke-linecap="round" stroke-linejoin="round" stroke-width="1.0"/>
  </g>
</svg>
