<?xml version="1.0" encoding="UTF-8" standalone="no"?>
<svg xmlns:xlink="http://www.w3.org/1999/xlink" height="186.3px" width="198.1px" xmlns="http://www.w3.org/2000/svg">
  <g transform="matrix(1.0, 0.0, 0.0, 1.0, 81.3, 140.2)">
    <path d="M114.55 -137.9 Q115.3 -137.1 115.3 -136.05 L115.3 41.95 Q115.3 43.0 114.55 43.8 113.8 44.6 112.85 44.6 L-77.35 44.6 Q-78.35 44.6 -79.05 43.8 -79.8 43.0 -79.8 41.95 L-79.8 -136.05 Q-79.8 -137.1 -79.05 -137.9 -78.35 -138.7 -77.35 -138.7 L112.85 -138.7 Q113.8 -138.7 114.55 -137.9" fill="#dcc6ad" fill-rule="evenodd" stroke="none"/>
    <path d="M114.55 -137.9 Q113.8 -138.7 112.85 -138.7 L-77.35 -138.7 Q-78.35 -138.7 -79.05 -137.9 -79.8 -137.1 -79.8 -136.05 L-79.8 41.95 Q-79.8 43.0 -79.05 43.8 -78.35 44.6 -77.35 44.6 L112.85 44.6 Q113.8 44.6 114.55 43.8 115.3 43.0 115.3 41.95 L115.3 -136.05 Q115.3 -137.1 114.55 -137.9 Z" fill="none" stroke="#483a24" stroke-linecap="round" stroke-linejoin="round" stroke-width="3.0"/>
  </g>
</svg>
