<?xml version="1.0" encoding="UTF-8" standalone="no"?>
<svg xmlns:xlink="http://www.w3.org/1999/xlink" height="17.45px" width="17.95px" xmlns="http://www.w3.org/2000/svg">
  <g transform="matrix(1.0, 0.0, 0.0, 1.0, 8.95, 15.95)">
    <path d="M7.1 -0.8 L0.05 -7.2 6.45 -13.55 0.05 -7.2 7.1 -0.8 6.9 -0.6 Q6.3 0.0 5.5 0.0 L-5.45 0.0 Q-6.2 0.0 -6.75 -0.5 L-6.85 -0.6 Q-7.45 -1.2 -7.45 -2.0 L-7.45 -12.45 -7.0 -13.65 -6.85 -13.85 Q-6.25 -14.45 -5.45 -14.45 L5.5 -14.45 Q6.3 -14.45 6.9 -13.85 7.5 -13.25 7.5 -12.45 L7.5 -2.0 Q7.5 -1.35 7.1 -0.8 M-6.75 -0.5 L0.05 -7.2 -7.0 -13.65 0.05 -7.2 -6.75 -0.5" fill="#dcc6ad" fill-rule="evenodd" stroke="none"/>
    <path d="M6.45 -13.55 L0.05 -7.2 7.1 -0.8 Q7.5 -1.35 7.5 -2.0 L7.5 -12.45 Q7.5 -13.25 6.9 -13.85 6.3 -14.45 5.5 -14.45 L-5.45 -14.45 Q-6.25 -14.45 -6.85 -13.85 L-7.0 -13.65 0.05 -7.2 -6.75 -0.5 Q-6.2 0.0 -5.45 0.0 L5.5 0.0 Q6.3 0.0 6.9 -0.6 L7.1 -0.8 7.35 -0.55 M-7.0 -13.65 L-7.3 -13.9 M-7.0 -13.65 L-7.45 -12.45 -7.45 -2.0 Q-7.45 -1.2 -6.85 -0.6 L-6.75 -0.5" fill="none" stroke="#483a24" stroke-linecap="round" stroke-linejoin="round" stroke-width="3.0"/>
  </g>
</svg>
