<?xml version="1.0" encoding="UTF-8" standalone="no"?>
<svg xmlns:xlink="http://www.w3.org/1999/xlink" height="24.5px" width="24.5px" xmlns="http://www.w3.org/2000/svg">
  <g transform="matrix(1.0, 0.0, 0.0, 1.0, 1.0, -1.05)">
    <path d="M22.5 12.9 Q22.35 8.5 19.2 5.35 17.3 3.45 15.0 2.7 17.3 3.4 19.2 5.15 22.5 8.2 22.5 12.55 L22.5 12.9 M7.5 2.7 Q5.2 3.45 3.3 5.35 0.15 8.5 0.0 12.9 L0.0 12.55 Q0.0 8.2 3.3 5.15 5.2 3.4 7.5 2.7 M0.0 13.5 Q0.15 8.85 3.3 5.55 5.2 3.55 7.5 2.75 9.25 2.1 11.25 2.1 13.25 2.1 15.0 2.75 17.3 3.55 19.2 5.55 22.35 8.85 22.5 13.5 22.35 17.8 19.2 20.9 15.9 24.1 11.25 24.1 6.6 24.1 3.3 20.9 0.15 17.8 0.0 13.5" fill="#dcc6ad" fill-rule="evenodd" stroke="none"/>
    <path d="M22.5 13.5 L22.5 13.3 22.5 12.9 Q22.35 8.5 19.2 5.35 17.3 3.45 15.0 2.7 13.25 2.05 11.25 2.05 9.25 2.05 7.5 2.7 5.2 3.45 3.3 5.35 0.15 8.5 0.0 12.9 L0.0 13.3 0.0 13.5 M22.5 13.5 Q22.45 18.05 19.2 21.3 15.9 24.55 11.25 24.55 6.6 24.55 3.3 21.3 0.05 18.05 0.0 13.5" fill="none" stroke="#483a24" stroke-linecap="round" stroke-linejoin="round" stroke-width="2.0"/>
  </g>
</svg>
