<?xml version="1.0" encoding="UTF-8" standalone="no"?>
<svg xmlns:xlink="http://www.w3.org/1999/xlink" height="367.85px" width="350.3px" xmlns="http://www.w3.org/2000/svg">
  <g transform="matrix(1.0, 0.0, 0.0, 1.0, 96.25, 177.15)">
    <path d="M251.65 -174.8 Q252.55 -173.9 252.55 -172.65 L252.55 186.2 Q252.55 187.45 251.65 188.3 250.8 189.2 249.55 189.2 L-91.75 189.2 Q-93.0 189.2 -93.9 188.3 -94.75 187.45 -94.75 186.2 L-94.75 -172.65 Q-94.75 -173.9 -93.9 -174.8 -93.0 -175.65 -91.75 -175.65 L249.55 -175.65 Q250.8 -175.65 251.65 -174.8" fill="#dcc6ad" fill-rule="evenodd" stroke="none"/>
    <path d="M251.65 -174.8 Q250.8 -175.65 249.55 -175.65 L-91.75 -175.65 Q-93.0 -175.65 -93.9 -174.8 -94.75 -173.9 -94.75 -172.65 L-94.75 186.2 Q-94.75 187.45 -93.9 188.3 -93.0 189.2 -91.75 189.2 L249.55 189.2 Q250.8 189.2 251.65 188.3 252.55 187.45 252.55 186.2 L252.55 -172.65 Q252.55 -173.9 251.65 -174.8 Z" fill="none" stroke="#483a24" stroke-linecap="round" stroke-linejoin="round" stroke-width="3.0"/>
  </g>
</svg>
