<?xml version="1.0" encoding="UTF-8" standalone="no"?>
<svg xmlns:xlink="http://www.w3.org/1999/xlink" height="17.5px" width="15.5px" xmlns="http://www.w3.org/2000/svg">
  <g transform="matrix(1.0, 0.0, 0.0, 1.0, 0.25, 0.25)">
    <path d="M10.45 -0.25 L11.0 0.0 11.2 0.5 11.2 9.5 14.5 9.5 15.05 9.75 15.25 10.25 15.25 10.45 15.2 10.75 15.1 10.95 15.05 11.05 8.05 17.1 8.0 17.1 7.5 17.25 7.05 17.1 0.05 11.05 -0.15 10.75 -0.25 10.45 -0.25 10.25 0.0 9.75 Q0.2 9.5 0.5 9.5 L3.8 9.5 3.8 0.5 4.05 0.0 4.55 -0.25 10.45 -0.25 M10.65 0.35 L10.45 0.25 4.55 0.25 Q4.45 0.25 4.4 0.35 L4.3 0.5 4.3 9.75 4.25 9.95 4.05 10.0 0.5 10.0 Q0.4 10.0 0.35 10.1 L0.25 10.25 0.25 10.45 0.3 10.55 0.4 10.7 0.4 10.65 7.4 16.7 7.4 16.75 7.5 16.75 7.7 16.7 14.7 10.65 14.75 10.55 14.75 10.45 14.75 10.25 14.7 10.1 14.5 10.0 10.95 10.0 10.8 9.95 10.7 9.75 10.7 0.5 10.65 0.35" fill="#12260d" fill-rule="evenodd" stroke="none"/>
    <path d="M13.4 10.75 L7.5 15.85 1.6 10.75 4.55 10.75 4.9 10.6 5.05 10.25 5.05 1.0 9.95 1.0 9.95 10.25 10.1 10.6 10.45 10.75 13.4 10.75" fill="#25d121" fill-rule="evenodd" stroke="none"/>
    <path d="M10.65 0.35 L10.7 0.5 10.7 9.75 10.8 9.95 10.95 10.0 14.5 10.0 14.7 10.1 14.75 10.25 14.75 10.45 14.75 10.55 14.7 10.65 7.7 16.7 7.5 16.75 7.4 16.75 7.4 16.7 0.4 10.65 0.4 10.7 0.3 10.55 0.25 10.45 0.25 10.25 0.35 10.1 Q0.4 10.0 0.5 10.0 L4.05 10.0 4.25 9.95 4.3 9.75 4.3 0.5 4.4 0.35 Q4.45 0.25 4.55 0.25 L10.45 0.25 10.65 0.35 M13.4 10.75 L10.45 10.75 10.1 10.6 9.95 10.25 9.95 1.0 5.05 1.0 5.05 10.25 4.9 10.6 4.55 10.75 1.6 10.75 7.5 15.85 13.4 10.75" fill="#66ff33" fill-rule="evenodd" stroke="none"/>
  </g>
</svg>
