<?xml version="1.0" encoding="UTF-8" standalone="no"?>
<svg xmlns:xlink="http://www.w3.org/1999/xlink" height="227.5px" width="964.7px" xmlns="http://www.w3.org/2000/svg">
  <g transform="matrix(1.0, 0.0, 0.0, 1.0, 2.5, 2.5)">
    <path d="M959.7 87.7 L959.7 48.35 M759.5 0.0 L758.7 0.0 M77.0 0.0 L24.0 0.0 Q21.95 0.0 20.45 1.45 19.0 2.95 19.0 5.0 L19.0 13.25 M19.0 197.6 Q19.0 199.6 17.5 201.05 16.05 202.55 14.0 202.55 L5.0 202.5 Q3.55 202.5 2.4 203.2 L1.45 203.95 Q0.0 205.45 0.0 207.5 L0.0 222.5" fill="none" stroke="#483a24" stroke-linecap="round" stroke-linejoin="round" stroke-width="5.0"/>
    <path d="M959.7 48.35 L959.7 34.7 Q959.7 32.65 958.25 31.15 956.75 29.7 954.7 29.7 L780.25 29.75 Q778.2 29.75 776.75 28.25 775.25 26.8 775.25 24.75 L775.25 22.55 M775.25 22.15 L775.35 5.0 Q775.35 2.95 773.9 1.45 772.45 0.05 770.35 0.0 L759.5 0.0" fill="none" stroke="#483a24" stroke-linecap="round" stroke-linejoin="round" stroke-width="4.75"/>
    <path d="M19.0 13.25 L19.0 169.75" fill="none" stroke="#483a24" stroke-linecap="round" stroke-linejoin="round" stroke-width="5.0"/>
  </g>
</svg>
