<?xml version="1.0" encoding="UTF-8" standalone="no"?>
<svg xmlns:xlink="http://www.w3.org/1999/xlink" height="35.7px" width="40.05px" xmlns="http://www.w3.org/2000/svg">
  <g transform="matrix(1.0, 0.0, 0.0, 1.0, 1.5, 1.5)">
    <path d="M37.05 16.35 Q37.05 23.1 31.6 27.9 26.2 32.7 18.55 32.7 10.85 32.7 5.4 27.9 0.0 23.1 0.0 16.35 0.0 9.6 5.4 4.8 10.85 0.0 18.55 0.0 26.2 0.0 31.6 4.8 37.05 9.6 37.05 16.35" fill="url(#gradient0)" fill-rule="evenodd" stroke="none"/>
    <path d="M37.05 16.35 Q37.05 23.1 31.6 27.9 26.2 32.7 18.55 32.7 10.85 32.7 5.4 27.9 0.0 23.1 0.0 16.35 0.0 9.6 5.4 4.8 10.85 0.0 18.55 0.0 26.2 0.0 31.6 4.8 37.05 9.6 37.05 16.35 Z" fill="none" stroke="#483a24" stroke-linecap="round" stroke-linejoin="round" stroke-width="3.0"/>
  </g>
  <defs>
    <linearGradient gradientTransform="matrix(0.0226, 0.0, 0.0, 0.02, 18.5, 16.35)" gradientUnits="userSpaceOnUse" id="gradient0" spreadMethod="pad" x1="-819.2" x2="819.2">
      <stop offset="0.0" stop-color="#cbab9a"/>
      <stop offset="0.5137254901960784" stop-color="#f2e8e1"/>
      <stop offset="1.0" stop-color="#cdae9e"/>
    </linearGradient>
  </defs>
</svg>
