<?xml version="1.0" encoding="UTF-8" standalone="no"?>
<svg xmlns:xlink="http://www.w3.org/1999/xlink" height="33.0px" width="33.0px" xmlns="http://www.w3.org/2000/svg">
  <g transform="matrix(1.0, 0.0, 0.0, 1.0, 1.5, 1.5)">
    <path d="M28.5 3.75 L28.5 26.25 Q28.5 27.2 27.85 27.85 27.2 28.5 26.25 28.5 L3.75 28.5 Q2.8 28.5 2.15 27.85 1.5 27.2 1.5 26.25 L1.5 3.75 Q1.5 2.8 2.15 2.15 2.8 1.5 3.75 1.5 L26.25 1.5 Q27.2 1.5 27.85 2.15 28.5 2.8 28.5 3.75" fill="url(#gradient0)" fill-rule="evenodd" stroke="none"/>
    <path d="M3.75 -1.5 L26.25 -1.5 Q28.4 -1.5 29.95 0.05 31.5 1.6 31.5 3.75 L31.5 26.25 Q31.5 28.4 29.95 29.95 28.4 31.5 26.25 31.5 L3.75 31.5 Q1.6 31.5 0.05 29.95 -1.5 28.4 -1.5 26.25 L-1.5 3.75 Q-1.5 1.6 0.05 0.05 1.6 -1.5 3.75 -1.5 M28.5 3.75 Q28.5 2.8 27.85 2.15 27.2 1.5 26.25 1.5 L3.75 1.5 Q2.8 1.5 2.15 2.15 1.5 2.8 1.5 3.75 L1.5 26.25 Q1.5 27.2 2.15 27.85 2.8 28.5 3.75 28.5 L26.25 28.5 Q27.2 28.5 27.85 27.85 28.5 27.2 28.5 26.25 L28.5 3.75" fill="#483a24" fill-rule="evenodd" stroke="none"/>
  </g>
  <defs>
    <linearGradient gradientTransform="matrix(0.0183, 0.0, 0.0, 0.0183, 15.0, 15.0)" gradientUnits="userSpaceOnUse" id="gradient0" spreadMethod="pad" x1="-819.2" x2="819.2">
      <stop offset="0.0" stop-color="#b6956d"/>
      <stop offset="0.4980392156862745" stop-color="#faecde"/>
      <stop offset="1.0" stop-color="#bc9d77"/>
    </linearGradient>
  </defs>
</svg>
