<?xml version="1.0" encoding="UTF-8" standalone="no"?>
<svg xmlns:xlink="http://www.w3.org/1999/xlink" height="20.3px" width="20.3px" xmlns="http://www.w3.org/2000/svg">
  <g transform="matrix(1.0, 0.0, 0.0, 1.0, 10.15, 19.3)">
    <path d="M6.45 -15.65 Q9.15 -12.95 9.15 -9.15 9.15 -5.35 6.45 -2.7 3.8 0.0 0.0 0.0 -3.8 0.0 -6.5 -2.7 -9.15 -5.35 -9.15 -9.15 -9.15 -12.95 -6.5 -15.65 -3.8 -18.3 0.0 -18.3 3.8 -18.3 6.45 -15.65" fill="#ffff00" fill-rule="evenodd" stroke="none"/>
    <path d="M6.45 -15.65 Q9.15 -12.95 9.15 -9.15 9.15 -5.35 6.45 -2.7 3.8 0.0 0.0 0.0 -3.8 0.0 -6.5 -2.7 -9.15 -5.35 -9.15 -9.15 -9.15 -12.95 -6.5 -15.65 -3.8 -18.3 0.0 -18.3 3.8 -18.3 6.45 -15.65 Z" fill="none" stroke="#6a5840" stroke-linecap="round" stroke-linejoin="round" stroke-width="2.0"/>
  </g>
</svg>
