<?xml version="1.0" encoding="UTF-8" standalone="no"?>
<svg xmlns:xlink="http://www.w3.org/1999/xlink" height="17.65px" width="17.65px" xmlns="http://www.w3.org/2000/svg">
  <g transform="matrix(1.0, 0.0, 0.0, 1.0, 8.85, 16.65)">
    <path d="M7.1 -15.15 L7.2 -15.05 Q7.8 -14.45 7.8 -13.65 L7.8 -2.0 Q7.8 -1.2 7.2 -0.6 L7.2 -0.55 -0.15 -7.9 7.1 -15.15 -0.15 -7.9 7.2 -0.55 Q6.6 0.0 5.8 0.0 L-5.85 0.0 Q-6.65 0.0 -7.25 -0.6 L-7.35 -0.7 Q-7.85 -1.25 -7.85 -2.0 L-7.85 -13.65 Q-7.85 -14.45 -7.25 -15.0 L-7.25 -15.05 Q-6.65 -15.65 -5.85 -15.65 L5.8 -15.65 Q6.55 -15.65 7.1 -15.15 M-0.15 -7.9 L-7.25 -15.0 -0.15 -7.9 -7.35 -0.7 -0.15 -7.9" fill="#dcc6ad" fill-rule="evenodd" stroke="none"/>
    <path d="M7.1 -15.15 L7.3 -15.35 M7.2 -0.55 L7.2 -0.6 Q7.8 -1.2 7.8 -2.0 L7.8 -13.65 Q7.8 -14.45 7.2 -15.05 L7.1 -15.15 -0.15 -7.9 7.2 -0.55 Q6.6 0.0 5.8 0.0 L-5.85 0.0 Q-6.65 0.0 -7.25 -0.6 L-7.35 -0.7 Q-7.85 -1.25 -7.85 -2.0 L-7.85 -13.65 Q-7.85 -14.45 -7.25 -15.0 L-7.25 -15.05 Q-6.65 -15.65 -5.85 -15.65 L5.8 -15.65 Q6.55 -15.65 7.1 -15.15 M-0.15 -7.9 L-7.35 -0.7 M-7.25 -15.0 L-0.15 -7.9" fill="none" stroke="#6a5840" stroke-linecap="round" stroke-linejoin="round" stroke-width="2.0"/>
  </g>
</svg>
