<?xml version="1.0" encoding="UTF-8" standalone="no"?>
<svg xmlns:xlink="http://www.w3.org/1999/xlink" height="341.8px" width="455.4px" xmlns="http://www.w3.org/2000/svg">
  <g transform="matrix(1.0, 0.0, 0.0, 1.0, 2.5, 2.5)">
    <path d="M446.4 0.0 L4.0 0.0 Q2.35 0.0 1.15 1.15 -0.05 2.35 0.0 4.0 L0.0 332.8 Q-0.05 334.45 1.15 335.6 2.35 336.8 4.0 336.8 L446.4 336.8 Q448.0 336.8 449.2 335.6 450.4 334.45 450.4 332.8 L450.4 4.0 Q450.4 2.35 449.2 1.15 448.0 0.0 446.4 0.0 Z" fill="none" stroke="#483a24" stroke-linecap="round" stroke-linejoin="round" stroke-width="5.0"/>
    <path d="M449.2 1.15 Q450.4 2.35 450.4 4.0 L450.4 332.8 Q450.4 334.45 449.2 335.6 448.0 336.8 446.4 336.8 L4.0 336.8 Q2.35 336.8 1.15 335.6 -0.05 334.45 0.0 332.8 L0.0 4.0 Q-0.05 2.35 1.15 1.15 2.35 0.0 4.0 0.0 L446.4 0.0 Q448.0 0.0 449.2 1.15" fill="#dcc6ad" fill-rule="evenodd" stroke="none"/>
  </g>
</svg>
