<?xml version="1.0" encoding="UTF-8" standalone="no"?>
<svg xmlns:xlink="http://www.w3.org/1999/xlink" height="31.35px" width="126.4px" xmlns="http://www.w3.org/2000/svg">
  <g transform="matrix(1.0, 0.0, 0.0, 1.0, 63.2, 30.35)">
    <path d="M62.2 -26.35 L62.2 -3.0 Q62.2 -1.75 61.3 -0.9 60.45 0.0 59.2 0.0 L-59.2 0.0 Q-60.45 0.0 -61.35 -0.9 -62.2 -1.75 -62.2 -3.0 L-62.2 -26.35 Q-62.2 -27.6 -61.35 -28.5 -60.45 -29.35 -59.2 -29.35 L59.2 -29.35 Q60.45 -29.35 61.3 -28.5 62.2 -27.6 62.2 -26.35" fill="#006600" fill-rule="evenodd" stroke="none"/>
    <path d="M62.2 -26.35 Q62.2 -27.6 61.3 -28.5 60.45 -29.35 59.2 -29.35 L-59.2 -29.35 Q-60.45 -29.35 -61.35 -28.5 -62.2 -27.6 -62.2 -26.35 L-62.2 -3.0 Q-62.2 -1.75 -61.35 -0.9 -60.45 0.0 -59.2 0.0 L59.2 0.0 Q60.45 0.0 61.3 -0.9 62.2 -1.75 62.2 -3.0 L62.2 -26.35 Z" fill="none" stroke="#00cc00" stroke-linecap="round" stroke-linejoin="round" stroke-width="2.0"/>
  </g>
</svg>
